<?xml version="1.0" encoding="UTF-8" standalone="no"?>
<!-- Created with Inkscape (http://www.inkscape.org/) -->

<svg
   xmlns:osb="http://www.openswatchbook.org/uri/2009/osb"
   xmlns:dc="http://purl.org/dc/elements/1.1/"
   xmlns:cc="http://creativecommons.org/ns#"
   xmlns:rdf="http://www.w3.org/1999/02/22-rdf-syntax-ns#"
   xmlns:svg="http://www.w3.org/2000/svg"
   xmlns="http://www.w3.org/2000/svg"
   xmlns:xlink="http://www.w3.org/1999/xlink"
   xmlns:sodipodi="http://sodipodi.sourceforge.net/DTD/sodipodi-0.dtd"
   xmlns:inkscape="http://www.inkscape.org/namespaces/inkscape"
   width="864"
   height="864"
   id="svg2"
   version="1.1"
   inkscape:version="0.48.2 r9819"
   sodipodi:docname="New document 1">
  <defs
     id="defs4">
    <radialGradient
       gradientUnits="userSpaceOnUse"
       r="36"
       fy="1016.3622"
       fx="36"
       cy="1016.3622"
       cx="36"
       id="radialGradient5347"
       xlink:href="#linearGradient5341"
       inkscape:collect="always" />
    <linearGradient
       gradientTransform="translate(-24.859223,-2.9002427)"
       gradientUnits="userSpaceOnUse"
       y2="1016.8687"
       x2="72.953194"
       y1="1016.8687"
       x1="-0.032806396"
       id="linearGradient3803"
       xlink:href="#linearGradient3787"
       inkscape:collect="always" />
    <linearGradient
       gradientTransform="translate(-17.953883,-5.2480582)"
       gradientUnits="userSpaceOnUse"
       y2="1019.2166"
       x2="66.047852"
       y1="1019.2166"
       x1="-6.9381461"
       id="linearGradient3793"
       xlink:href="#linearGradient3787"
       inkscape:collect="always" />
    <linearGradient
       id="linearGradient3787"
       inkscape:collect="always">
      <stop
         id="stop3789"
         offset="0"
         style="stop-color:#ff0000;stop-opacity:1;" />
      <stop
         id="stop3791"
         offset="1"
         style="stop-color:#ff0000;stop-opacity:0;" />
    </linearGradient>
    <linearGradient
       osb:paint="solid"
       id="linearGradient5261">
      <stop
         id="stop5263"
         offset="0"
         style="stop-color:#ff0000;stop-opacity:1;" />
    </linearGradient>
    <linearGradient
       osb:paint="gradient"
       id="linearGradient5313">
      <stop
         id="stop5315"
         offset="0"
         style="stop-color:#ff0000;stop-opacity:1;" />
      <stop
         id="stop5317"
         offset="1"
         style="stop-color:#ff0000;stop-opacity:0;" />
    </linearGradient>
    <linearGradient
       osb:paint="gradient"
       id="linearGradient5327">
      <stop
         id="stop5329"
         offset="0"
         style="stop-color:#ff0000;stop-opacity:1;" />
      <stop
         id="stop5331"
         offset="1"
         style="stop-color:#ff0000;stop-opacity:0;" />
    </linearGradient>
    <linearGradient
       id="linearGradient5341">
      <stop
         style="stop-color:#ff0000;stop-opacity:0.49803922;"
         offset="0"
         id="stop5349" />
      <stop
         id="stop5359"
         offset="0.25"
         style="stop-color:#ff0000;stop-opacity:0.37254902;" />
      <stop
         id="stop5357"
         offset="0.5"
         style="stop-color:#ff0000;stop-opacity:0.24705882;" />
      <stop
         id="stop5345"
         offset="1"
         style="stop-color:#ff0000;stop-opacity:0;" />
    </linearGradient>
  </defs>
  <sodipodi:namedview
     id="base"
     pagecolor="#ffffff"
     bordercolor="#666666"
     borderopacity="1.0"
     inkscape:pageopacity="0.0"
     inkscape:pageshadow="2"
     inkscape:zoom="0.35"
     inkscape:cx="715.32643"
     inkscape:cy="591.96258"
     inkscape:document-units="px"
     inkscape:current-layer="layer1-8"
     showgrid="false"
     inkscape:window-width="1440"
     inkscape:window-height="852"
     inkscape:window-x="0"
     inkscape:window-y="0"
     inkscape:window-maximized="1" />
  <metadata
     id="metadata7">
    <rdf:RDF>
      <cc:Work
         rdf:about="">
        <dc:format>image/svg+xml</dc:format>
        <dc:type
           rdf:resource="http://purl.org/dc/dcmitype/StillImage" />
        <dc:title></dc:title>
      </cc:Work>
    </rdf:RDF>
  </metadata>
  <g
     inkscape:label="Layer 1"
     inkscape:groupmode="layer"
     id="layer1"
     transform="translate(0,-188.36218)">
    <g
       transform="translate(1124,-646.85715)"
       id="layer1-8"
       inkscape:label="Layer 1">
      <rect
         ry="20.571411"
         rx="20.571428"
         transform="scale(1,-1)"
         y="-1071.7906"
         x="-1052"
         height="164.57129"
         width="164.57143"
         id="rect5370"
         style="fill:#ff0000;fill-opacity:1;fill-rule:evenodd;stroke:none" />
      <rect
         ry="20.571411"
         rx="20.571428"
         transform="scale(1,-1)"
         y="-1071.7906"
         x="-866.85712"
         height="164.57129"
         width="164.57143"
         id="rect5370-7"
         style="fill:#0000ff;fill-opacity:1;fill-rule:evenodd;stroke:none" />
      <rect
         ry="20.571411"
         rx="20.571428"
         transform="scale(1,-1)"
         y="-1071.7906"
         x="-681.71429"
         height="164.57129"
         width="164.57143"
         id="rect5370-7-4"
         style="fill:#0000ff;fill-opacity:1;fill-rule:evenodd;stroke:none" />
      <rect
         ry="20.571411"
         rx="20.571428"
         transform="scale(1,-1)"
         y="-1071.7906"
         x="-496.57141"
         height="164.57129"
         width="164.57143"
         id="rect5370-7-8"
         style="fill:#ff0000;fill-opacity:1;fill-rule:evenodd;stroke:none" />
      <rect
         ry="20.571411"
         rx="20.571428"
         transform="scale(1,-1)"
         y="-1627.2194"
         x="-1052"
         height="164.57129"
         width="164.57143"
         id="rect5370-6"
         style="fill:#ff0000;fill-opacity:1;fill-rule:evenodd;stroke:none" />
      <rect
         ry="20.571411"
         rx="20.571428"
         transform="scale(1,-1)"
         y="-1627.2194"
         x="-866.85712"
         height="164.57129"
         width="164.57143"
         id="rect5370-7-3"
         style="fill:#0000ff;fill-opacity:1;fill-rule:evenodd;stroke:none" />
      <rect
         ry="20.571411"
         rx="20.571428"
         transform="scale(1,-1)"
         y="-1627.2194"
         x="-681.71429"
         height="164.57129"
         width="164.57143"
         id="rect5370-7-4-1"
         style="fill:#0000ff;fill-opacity:1;fill-rule:evenodd;stroke:none" />
      <rect
         ry="20.571411"
         rx="20.571428"
         transform="scale(1,-1)"
         y="-1627.2194"
         x="-496.57141"
         height="164.57129"
         width="164.57143"
         id="rect5370-7-8-1"
         style="fill:#ff0000;fill-opacity:1;fill-rule:evenodd;stroke:none" />
      <rect
         ry="20.571411"
         rx="20.571428"
         transform="scale(1,-1)"
         y="-1442.0767"
         x="-1052"
         height="164.57129"
         width="164.57143"
         id="rect5370-6-0"
         style="fill:#0000ff;fill-opacity:1;fill-rule:evenodd;stroke:none" />
      <rect
         ry="20.571411"
         rx="20.571428"
         transform="scale(1,-1)"
         y="-1442.0767"
         x="-866.85712"
         height="164.57129"
         width="164.57143"
         id="rect5370-7-3-0"
         style="fill:#0000ff;fill-opacity:1;fill-rule:evenodd;stroke:none" />
      <rect
         ry="20.571411"
         rx="20.571428"
         transform="scale(1,-1)"
         y="-1442.0767"
         x="-681.71429"
         height="164.57129"
         width="164.57143"
         id="rect5370-7-4-1-2"
         style="fill:#0000ff;fill-opacity:1;fill-rule:evenodd;stroke:none" />
      <rect
         ry="20.571411"
         rx="20.571428"
         transform="scale(1,-1)"
         y="-1442.0767"
         x="-496.57141"
         height="164.57129"
         width="164.57143"
         id="rect5370-7-8-1-6"
         style="fill:#0000ff;fill-opacity:1;fill-rule:evenodd;stroke:none" />
      <rect
         ry="20.571411"
         rx="20.571428"
         transform="scale(1,-1)"
         y="-1256.9333"
         x="-1052"
         height="164.57129"
         width="164.57143"
         id="rect5370-6-9"
         style="fill:#0000ff;fill-opacity:1;fill-rule:evenodd;stroke:none" />
      <rect
         ry="20.571411"
         rx="20.571428"
         transform="scale(1,-1)"
         y="-1256.9333"
         x="-866.85712"
         height="164.57129"
         width="164.57143"
         id="rect5370-7-3-1"
         style="fill:#0000ff;fill-opacity:1;fill-rule:evenodd;stroke:none" />
      <rect
         ry="20.571411"
         rx="20.571428"
         transform="scale(1,-1)"
         y="-1256.9333"
         x="-681.71429"
         height="164.57129"
         width="164.57143"
         id="rect5370-7-4-1-1"
         style="fill:#0000ff;fill-opacity:1;fill-rule:evenodd;stroke:none" />
      <rect
         ry="20.571411"
         rx="20.571428"
         transform="scale(1,-1)"
         y="-1256.9333"
         x="-496.57141"
         height="164.57129"
         width="164.57143"
         id="rect5370-7-8-1-9"
         style="fill:#0000ff;fill-opacity:1;fill-rule:evenodd;stroke:none" />
      <path
         inkscape:connector-curvature="0"
         id="path5557"
         d="m -859.61601,1064.472 -5.83683,-5.8368 0,-67.75615 c 0,-74.34066 0.072,-74.89125 9.85752,-79.95367 4.09525,-2.11783 15.1164,-2.50591 71.16325,-2.50591 58.42595,0 66.86177,0.32195 70.89131,2.70185 10.03731,5.9292 9.97745,5.45996 9.97745,78.16684 0,71.68704 -0.0926,72.49844 -8.94312,78.29754 -3.69206,2.4193 -11.81099,2.7227 -72.71445,2.7227 l -68.5583,0 -5.83683,-5.8364 z"
         style="fill:none;stroke:none" />
      <path
         inkscape:connector-curvature="0"
         id="path5559"
         d="m -672.43401,1066.5838 c -2.41293,-2.0397 -5.20056,-5.3323 -6.19467,-7.3169 -1.21896,-2.4331 -1.80762,-25.2147 -1.80762,-69.95221 0,-58.45037 0.32092,-66.88814 2.70186,-70.91777 5.9292,-10.03731 5.45986,-9.97745 78.1669,-9.97745 56.04675,0 67.0679,0.38777 71.16326,2.50591 9.78963,5.06242 9.85752,5.61301 9.85752,79.95367 l 0,67.75615 -5.83684,5.8368 -5.83683,5.8364 -68.91316,-0.01 -68.91315,-0.01 -4.38727,-3.7082 z"
         style="fill:none;stroke:none" />
      <path
         inkscape:connector-curvature="0"
         id="path5561"
         d="m -859.61601,1249.4885 -5.83683,-5.8371 0.0617,-68.0873 c 0.0617,-73.6158 -0.0206,-72.8742 9.13845,-78.9129 4.5864,-3.023 8.39458,-3.1937 71.49281,-3.204 58.74511,-0.01 67.19091,0.3085 71.22229,2.6907 10.05686,5.941 9.97735,5.3054 9.97735,79.6813 l 0,67.8322 -5.83683,5.8371 -5.83684,5.8372 -69.27109,0 -69.2711,0 -5.83683,-5.8372 z"
         style="fill:none;stroke:none" />
      <path
         inkscape:connector-curvature="0"
         id="path5563"
         d="m -674.59946,1249.4885 -5.83684,-5.8371 0,-67.8322 c 0,-74.3759 -0.0823,-73.7403 9.97746,-79.6813 4.03138,-2.3811 12.47718,-2.701 71.22219,-2.6907 63.09833,0.01 66.90651,0.1851 71.49291,3.204 9.16108,6.0387 9.07519,5.2971 9.13845,78.9129 l 0.0617,68.0873 -5.83683,5.8371 -5.83683,5.8372 -69.2711,0 -69.2711,0 -5.83683,-5.8372 z"
         style="fill:none;stroke:none" />
      <path
         inkscape:connector-curvature="0"
         id="path5565"
         d="m -487.41736,1251.6002 c -2.41292,-2.0397 -5.20056,-5.3321 -6.19478,-7.3173 -1.21885,-2.4325 -1.8075,-25.2144 -1.8075,-69.952 0,-58.4506 0.32091,-66.888 2.70174,-70.9179 5.9292,-10.0368 5.45997,-9.9771 78.16691,-9.9771 71.6871,0 72.49865,0.1028 78.29763,8.9434 2.4191,3.6915 2.72325,11.8059 2.72325,72.652 l 0,68.4956 -5.56386,5.8989 -5.56385,5.8999 -69.18613,-0.01 -69.18624,-0.01 -4.38717,-3.7091 z"
         style="fill:none;stroke:none" />
      <path
         inkscape:connector-curvature="0"
         id="path5567"
         d="m -1044.9056,1249.4258 -5.5639,-5.8989 0,-68.4956 c 0,-60.8461 0.3045,-68.9605 2.7232,-72.652 5.799,-8.8509 6.6105,-8.9434 78.29768,-8.9434 58.42584,0 66.86167,0.3188 70.8912,2.702 10.03732,5.9287 9.97746,5.4597 9.97746,78.1662 0,71.6873 -0.0926,72.4988 -8.94312,78.2979 -3.69278,2.4202 -11.83032,2.7237 -72.98743,2.7237 l -68.83129,0 -5.5638,-5.8999 z"
         style="fill:none;stroke:none" />
      <path
         inkscape:connector-curvature="0"
         id="path5569"
         d="m -1036.7041,1440.2174 c -2.8775,-0.8537 -7.1519,-3.8325 -9.4986,-6.622 l -4.2668,-5.0708 0.051,-68.8412 c 0.062,-74.7462 -0.2993,-71.787 9.4203,-78.1971 4.2306,-2.7895 9.4991,-3.0127 71.21703,-3.0229 58.745,-0.01 67.19081,0.3085 71.2223,2.6907 10.03731,5.9297 9.97734,5.4596 9.97734,78.1672 0,72.1995 -0.0206,72.3415 -9.4142,78.7104 -4.32874,2.9335 -8.78338,3.1556 -69.05263,3.4364 -36.33484,0.1646 -66.70654,-0.3703 -69.65724,-1.2507 z"
         style="fill:none;stroke:none" />
      <path
         inkscape:connector-curvature="0"
         id="path5571"
         d="m -851.76451,1440.1608 c -2.91991,-0.8434 -7.19435,-4.0063 -9.49865,-7.0272 l -4.18968,-5.4936 0,-67.3179 c 0,-59.3526 0.31988,-67.8599 2.70174,-71.8919 5.92982,-10.0388 5.45226,-9.9782 78.24302,-9.9782 72.79066,0 72.3131,-0.1028 78.24292,9.9782 2.38299,4.0341 2.70185,12.5774 2.70185,72.4052 l 0,67.8332 -5.59255,5.5923 c -3.07584,3.0755 -8.00064,6.0737 -10.944,6.6621 -8.25789,1.6519 -125.66582,0.9771 -131.66465,-0.7612 l 0,0 z"
         style="fill:none;stroke:none" />
      <path
         inkscape:connector-curvature="0"
         id="path5573"
         d="m -665.22475,1440.8191 c -2.08214,-0.4011 -6.35647,-3.2955 -9.49865,-6.4378 l -5.7129,-5.7127 0,-67.8332 c 0,-59.8278 0.31886,-68.3711 2.70186,-72.4052 5.92971,-10.0388 5.45214,-9.9782 78.24291,-9.9782 72.79077,0 72.3132,-0.1028 78.24302,9.9782 2.38207,4.032 2.70175,12.5393 2.70175,71.8919 l 0,67.3179 -4.1613,5.4566 c -2.5237,3.3079 -6.58676,6.1292 -10.32459,7.1671 -5.96016,1.6549 -123.86139,2.1507 -132.1921,0.5554 l 0,0 z"
         style="fill:none;stroke:none" />
      <path
         inkscape:connector-curvature="0"
         id="path5575"
         d="m -479.6574,1440.7882 c -5.4214,-1.3762 -10.84886,-5.6478 -13.36876,-10.5212 -1.97342,-3.816 -2.39348,-16.2679 -2.39348,-70.9457 0,-72.7076 -0.0617,-72.2375 9.97734,-78.1672 4.03149,-2.3811 12.4773,-2.7 71.2223,-2.6907 61.71789,0.01 66.98643,0.2365 71.21705,3.0229 9.71969,6.4101 9.36319,3.4509 9.42028,78.1971 l 0.0514,68.8412 -4.23607,5.0348 c -2.32972,2.7679 -6.97588,5.795 -10.32449,6.7248 -6.1017,1.6951 -125.08519,2.1508 -131.56674,0.504 l 0,0 z"
         style="fill:none;stroke:none" />
      <path
         inkscape:connector-curvature="0"
         id="path5577"
         d="m -853.20348,1624.6617 c -2.80276,-1.2199 -6.70547,-4.2644 -8.67271,-6.7659 -3.53541,-4.4938 -3.57665,-5.327 -3.57665,-72.2109 0,-75.0825 -0.0823,-74.4942 10.91458,-79.7111 7.85962,-3.7296 132.20064,-3.7296 140.06026,0 10.98854,5.2138 10.91469,4.6769 10.91469,79.2658 0,66.1217 -0.0617,67.3004 -3.5495,72.2036 -6.65506,9.3466 -8.50958,9.5729 -77.75527,9.5019 -49.18495,0 -64.37201,-0.5554 -68.3354,-2.2834 z"
         style="fill:none;stroke:none" />
      <path
         inkscape:connector-curvature="0"
         id="path5579"
         d="m -668.2181,1624.6494 c -2.82004,-1.2281 -6.72274,-4.4733 -8.67271,-7.2113 -3.48634,-4.896 -3.54549,-6.1005 -3.54549,-72.1985 0,-74.5889 -0.072,-74.052 10.91469,-79.2658 7.85962,-3.7296 132.20064,-3.7296 140.06026,0 10.99523,5.2169 10.91459,4.6286 10.91459,79.7111 0,66.9096 -0.0412,67.715 -3.58118,72.217 -6.97834,8.8715 -9.06069,9.1142 -77.72349,9.0432 -49.36999,0 -64.36399,-0.5554 -68.36667,-2.2957 z"
         style="fill:none;stroke:none" />
      <path
         transform="matrix(10.286398,0,0,10.285705,-1045.9676,904.22198)"
         d="m 28.587636,9.2838669 a 2.0878611,2.0075586 0 1 1 -4.175722,0 2.0878611,2.0075586 0 1 1 4.175722,0 z"
         sodipodi:ry="2.0075586"
         sodipodi:rx="2.0878611"
         sodipodi:cy="9.2838669"
         sodipodi:cx="26.499775"
         id="path5585"
         style="fill:#00ff00;fill-opacity:1;fill-rule:evenodd;stroke:none"
         sodipodi:type="arc" />
      <path
         transform="matrix(10.286398,0,0,10.285705,-891.68193,904.22198)"
         d="m 28.587636,9.2838669 a 2.0878611,2.0075586 0 1 1 -4.175722,0 2.0878611,2.0075586 0 1 1 4.175722,0 z"
         sodipodi:ry="2.0075586"
         sodipodi:rx="2.0878611"
         sodipodi:cy="9.2838669"
         sodipodi:cx="26.499775"
         id="path5585-2"
         style="fill:#00ff00;fill-opacity:1;fill-rule:evenodd;stroke:none"
         sodipodi:type="arc" />
    </g>
  </g>
</svg>
